<svg width="214" height="214" viewBox="0 0 214 214" fill="none" xmlns="http://www.w3.org/2000/svg">
<g filter="url(#filter0_d_13_28)">
<circle cx="107" cy="83" r="73" fill="url(#paint0_linear_13_28)"/>
</g>
<path d="M104.236 30.1422L106.649 22.4298H107.718L110.12 30.1422H109.106L108.544 28.2251H105.812L105.25 30.1422H104.236ZM107.156 23.7299L106.043 27.4539H108.313L107.2 23.7299H107.156Z" fill="white"/>
<path d="M119.567 31.8274C118.926 31.6692 118.488 31.3571 118.255 30.8912C118.022 30.4252 117.995 29.8285 118.174 29.1011L118.96 25.9132L119.859 26.1347L119.099 29.2156C118.983 29.6863 118.995 30.0826 119.135 30.4046C119.284 30.7212 119.573 30.9322 120 31.0377C120.428 31.1432 120.824 31.0893 121.186 30.8761C121.551 30.6558 121.8 30.2746 121.933 29.7326L122.651 26.8228L123.549 27.0443L122.241 32.3503L121.493 32.1657L121.594 31.3397L121.541 31.3265C121.335 31.5481 121.056 31.7138 120.703 31.8237C120.353 31.9264 119.974 31.9276 119.567 31.8274Z" fill="white"/>
<path d="M132.51 36.722C132.067 36.4899 131.776 36.2 131.635 35.8522C131.494 35.5045 131.57 35.0509 131.864 34.4916L133.256 31.8381L132.027 31.1929L132.396 30.4905L133.127 30.8745C133.459 31.0486 133.736 30.9867 133.959 30.6888L134.49 30.0093L135.095 30.3268L134.444 31.5657L136.376 32.5795L136.007 33.2819L134.076 32.2681L132.683 34.9217C132.54 35.1949 132.501 35.4192 132.566 35.5946C132.638 35.7734 132.83 35.9447 133.143 36.1086L134.225 36.6769L133.836 37.4184L132.51 36.722Z" fill="white"/>
<path d="M140.776 42.2772L146.036 36.3394L146.729 36.9532L144.544 39.419C144.839 39.3075 145.172 39.2978 145.542 39.3899C145.916 39.4765 146.255 39.6537 146.557 39.9216C147.058 40.3649 147.303 40.8521 147.293 41.3834C147.289 41.9196 147.046 42.4599 146.564 43.0041L144.38 45.47L143.687 44.8563L145.791 42.4812C146.117 42.1128 146.28 41.7465 146.279 41.3824C146.283 41.0231 146.126 40.7022 145.807 40.4197C145.587 40.2249 145.342 40.0966 145.073 40.0348C144.804 39.973 144.529 39.9896 144.249 40.0847C143.969 40.1797 143.704 40.3674 143.456 40.6478L141.468 42.8909L140.776 42.2772Z" fill="white"/>
<path d="M150.971 53.7034C150.679 53.2803 150.517 52.8387 150.485 52.3788C150.464 51.9207 150.563 51.477 150.785 51.0476C151.012 50.614 151.361 50.2345 151.833 49.909C152.304 49.5836 152.778 49.3905 153.254 49.3298C153.74 49.2711 154.192 49.3381 154.611 49.531C155.036 49.7198 155.398 50.0317 155.699 50.467C155.999 50.9022 156.156 51.3428 156.169 51.7888C156.189 52.2306 156.095 52.6437 155.887 53.0281C155.679 53.4124 155.391 53.7319 155.022 53.9864C154.956 54.0323 154.887 54.0752 154.816 54.115C154.75 54.1609 154.674 54.2131 154.59 54.2715L152.18 50.7805C151.86 51.0282 151.634 51.2957 151.502 51.583C151.381 51.8723 151.336 52.1572 151.369 52.4378C151.407 52.7245 151.507 52.9857 151.669 53.2215C151.899 53.554 152.148 53.7659 152.416 53.8573C152.685 53.9488 152.976 53.9573 153.291 53.8829L153.81 54.6355C153.322 54.8207 152.82 54.8502 152.305 54.724C151.795 54.5937 151.351 54.2535 150.971 53.7034ZM155.006 50.9183C154.764 50.5676 154.446 50.3324 154.05 50.2124C153.659 50.0985 153.253 50.1428 152.83 50.3452L154.72 53.0836C155.078 52.8007 155.278 52.4623 155.318 52.0684C155.369 51.6764 155.265 51.293 155.006 50.9183Z" fill="white"/>
<path d="M156.132 62.8662L161.242 60.9283L161.515 61.6494L160.778 62.0352L160.797 62.0867C161.096 62.1303 161.388 62.2672 161.672 62.4974C161.962 62.725 162.18 63.0311 162.326 63.4157C162.563 64.0406 162.555 64.578 162.301 65.0277C162.05 65.4842 161.575 65.8454 160.874 66.111L157.804 67.2753L157.476 66.41L160.443 65.2848C160.896 65.1129 161.212 64.8791 161.391 64.5836C161.576 64.2855 161.589 63.9269 161.43 63.508C161.277 63.1028 161.006 62.8128 160.617 62.638C160.236 62.4606 159.784 62.4709 159.262 62.6688L156.46 63.7315L156.132 62.8662Z" fill="white"/>
<path d="M160.024 78.1679C159.964 77.672 160.037 77.2673 160.243 76.9538C160.449 76.6402 160.865 76.4453 161.492 76.3692L164.467 76.0079L164.3 74.6298L165.088 74.5342L165.187 75.3545C165.232 75.7264 165.441 75.9193 165.812 75.9334L166.673 75.9843L166.755 76.6624L165.366 76.8311L165.629 78.9967L164.842 79.0923L164.579 76.9267L161.604 77.2879C161.298 77.3251 161.091 77.4205 160.984 77.5741C160.878 77.7349 160.846 77.9904 160.888 78.3404L161.036 79.5544L160.204 79.6554L160.024 78.1679Z" fill="white"/>
<path d="M166.255 91.2096C166.281 90.9909 166.376 90.8174 166.54 90.6893C166.704 90.5612 166.887 90.5095 167.092 90.5343C167.303 90.56 167.469 90.6541 167.59 90.8168C167.718 90.9803 167.769 91.1715 167.742 91.3902C167.717 91.6017 167.622 91.7715 167.459 91.8996C167.301 92.0359 167.117 92.0912 166.906 92.0655C166.701 92.0407 166.536 91.9429 166.409 91.7721C166.28 91.6086 166.229 91.4211 166.255 91.2096ZM160.125 88.3122L160.913 88.4078L160.703 90.1359L164.279 90.5702C164.462 90.5923 164.564 90.5122 164.586 90.3299L164.74 89.0612L165.527 89.1568L165.347 90.6443C165.268 91.2933 164.904 91.5783 164.255 91.4995L160.591 91.0546L160.381 92.7828L159.594 92.6871L160.125 88.3122Z" fill="white"/>
<path d="M156.525 103.038C156.699 102.578 156.962 102.206 157.313 101.923C157.661 101.647 158.075 101.477 158.554 101.416C159.04 101.356 159.561 101.432 160.117 101.643C160.674 101.854 161.111 102.142 161.428 102.506C161.753 102.872 161.952 103.278 162.027 103.723C162.099 104.174 162.051 104.623 161.882 105.07C161.642 105.701 161.293 106.146 160.833 106.404C160.374 106.662 159.861 106.742 159.293 106.645L159.629 105.759C159.942 105.783 160.225 105.71 160.478 105.539C160.738 105.371 160.936 105.108 161.072 104.751C161.171 104.49 161.196 104.216 161.147 103.931C161.098 103.645 160.964 103.378 160.744 103.13C160.524 102.881 160.204 102.678 159.785 102.519C159.366 102.36 158.989 102.299 158.653 102.337C158.323 102.377 158.045 102.487 157.82 102.669C157.594 102.85 157.431 103.071 157.332 103.332C157.189 103.71 157.162 104.041 157.25 104.326C157.336 104.618 157.504 104.859 157.754 105.048L157.418 105.934C156.925 105.597 156.597 105.178 156.434 104.677C156.268 104.182 156.298 103.635 156.525 103.038Z" fill="white"/>
<path d="M143.77 122.383L148.885 128.156L147.112 129.727C146.666 130.121 146.235 130.371 145.818 130.476C145.395 130.586 144.997 130.575 144.625 130.443C144.258 130.317 143.931 130.091 143.644 129.767C143.308 129.387 143.11 128.964 143.049 128.498C142.989 128.041 143.108 127.578 143.407 127.107L139.969 125.751L140.793 125.021L144.053 126.357L144.094 126.321L145.175 125.364L143.078 122.997L143.77 122.383ZM145.737 125.999L144.682 126.934C144.242 127.324 144.008 127.708 143.98 128.086C143.951 128.474 144.075 128.825 144.353 129.138C144.645 129.468 144.978 129.639 145.352 129.652C145.721 129.669 146.133 129.475 146.589 129.071L147.637 128.143L145.737 125.999Z" fill="white"/>
<path d="M131.24 131.109C131.696 130.87 132.153 130.762 132.614 130.786C133.074 130.81 133.504 130.957 133.904 131.229C134.307 131.507 134.643 131.903 134.913 132.416C135.183 132.93 135.316 133.429 135.312 133.912C135.312 134.401 135.191 134.842 134.949 135.235C134.707 135.627 134.358 135.943 133.903 136.182C133.448 136.421 132.99 136.528 132.529 136.505C132.069 136.481 131.637 136.33 131.234 136.052C130.834 135.781 130.5 135.388 130.23 134.874C129.96 134.36 129.826 133.859 129.826 133.369C129.83 132.886 129.952 132.448 130.194 132.056C130.436 131.663 130.785 131.348 131.24 131.109ZM131.65 131.889C131.37 132.036 131.149 132.231 130.986 132.474C130.823 132.717 130.745 133.003 130.752 133.331C130.752 133.663 130.858 134.031 131.069 134.434C131.281 134.837 131.523 135.133 131.796 135.321C132.063 135.513 132.342 135.611 132.635 135.615C132.927 135.619 133.213 135.548 133.493 135.401C133.766 135.258 133.984 135.065 134.147 134.822C134.31 134.579 134.391 134.291 134.391 133.959C134.391 133.628 134.286 133.26 134.074 132.857C133.756 132.252 133.376 131.883 132.933 131.751C132.494 131.625 132.066 131.671 131.65 131.889Z" fill="white"/>
<path d="M120.241 132.959L119.642 136.148L119.953 136.072L123.23 140.347L122.257 140.587L119.501 136.909L118.673 141.471L117.732 141.703L119.299 133.192L120.241 132.959Z" fill="white"/>
<path d="M106.849 137.04C107.283 137.04 107.643 137.117 107.929 137.271C108.215 137.425 108.428 137.627 108.568 137.877C108.708 138.134 108.777 138.413 108.777 138.714C108.777 139.273 108.575 139.695 108.171 139.981C107.76 140.275 107.213 140.422 106.53 140.422H105.031V140.532C105.031 141.487 105.468 141.965 106.342 141.965C106.695 141.965 106.992 141.887 107.235 141.733C107.47 141.579 107.62 141.336 107.687 141.006H108.634C108.597 141.373 108.476 141.689 108.271 141.953C108.058 142.218 107.786 142.42 107.455 142.559C107.125 142.699 106.754 142.769 106.342 142.769C105.564 142.769 104.998 142.563 104.646 142.152C104.286 141.748 104.106 141.208 104.106 140.532V137.172H104.899L104.976 138.02H105.053C105.215 137.756 105.432 137.524 105.703 137.326C105.968 137.135 106.35 137.04 106.849 137.04ZM106.684 137.855C106.331 137.855 106.034 137.939 105.792 138.108C105.542 138.277 105.355 138.501 105.23 138.78C105.097 139.06 105.031 139.364 105.031 139.695H106.453C106.952 139.695 107.305 139.61 107.51 139.441C107.709 139.273 107.808 139.048 107.808 138.769C107.808 138.483 107.712 138.259 107.521 138.097C107.33 137.936 107.051 137.855 106.684 137.855Z" fill="white"/>
<path d="M95.998 136.115L95.8082 136.885L94.0003 136.44L92.5475 142.334C92.5035 142.512 92.5707 142.623 92.749 142.667L94.0969 143L93.9071 143.77L92.3452 143.385C92.0385 143.309 91.8234 143.169 91.6998 142.965C91.5762 142.76 91.5522 142.505 91.6278 142.198L93.1017 136.218L91.2938 135.773L91.4837 135.002L95.998 136.115Z" fill="white"/>
<path d="M81.0559 130.592C81.4981 130.824 81.7897 131.114 81.9308 131.462C82.0718 131.809 81.9955 132.263 81.7019 132.822L80.3092 135.476L81.5384 136.121L81.1698 136.823L80.4381 136.439C80.1064 136.265 79.8292 136.327 79.6065 136.625L79.0757 137.305L78.4708 136.987L79.1211 135.748L77.1895 134.734L77.5581 134.032L79.4898 135.046L80.8824 132.392C81.0258 132.119 81.0647 131.895 80.9992 131.719C80.9271 131.54 80.735 131.369 80.4228 131.205L79.3399 130.637L79.7291 129.895L81.0559 130.592Z" fill="white"/>
<path d="M73.8524 122.739L70.8883 124.058L71.1274 124.27L69.4707 129.396L68.7202 128.731L70.1815 124.374L65.9575 126.284L65.2318 125.641L73.1267 122.096L73.8524 122.739Z" fill="white"/>
<path d="M56.7093 102.165C56.9306 102.749 56.9676 103.312 56.82 103.855C56.6698 104.392 56.3596 104.879 55.8892 105.316C55.4163 105.747 54.8021 106.105 54.0466 106.392C53.298 106.676 52.6039 106.813 51.9643 106.805C51.3151 106.792 50.7566 106.634 50.2887 106.332C49.8181 106.024 49.4722 105.578 49.2508 104.994C48.9695 104.252 48.9489 103.577 49.1891 102.967C49.4224 102.36 49.8647 101.89 50.5159 101.556L50.8793 102.515C50.5001 102.737 50.2253 103.038 50.0547 103.416C49.8842 103.795 49.8875 104.218 50.0646 104.685C50.2912 105.283 50.7306 105.654 51.3828 105.8C52.0281 105.948 52.8041 105.85 53.7106 105.506C54.624 105.16 55.2732 104.717 55.658 104.178C56.0429 103.64 56.122 103.071 55.8954 102.474C55.7105 101.986 55.438 101.662 55.0781 101.5C54.7155 101.331 54.3152 101.29 53.8771 101.378L53.5137 100.42C54.2422 100.269 54.8889 100.338 55.454 100.626C56.0095 100.911 56.428 101.424 56.7093 102.165Z" fill="white"/>
<path d="M53.8984 92.0885L46.0234 93.0446L45.9119 92.1259L49.1822 91.7288C48.8874 91.6166 48.6321 91.4035 48.4164 91.0893C48.1934 90.776 48.0575 90.4189 48.0088 90.0178C47.9283 89.3543 48.0677 88.8268 48.4271 88.4354C48.7857 88.0367 49.3259 87.7936 50.0477 87.7059L53.318 87.3088L53.4296 88.2276L50.2796 88.61C49.7911 88.6694 49.4265 88.8357 49.1859 89.1091C48.9445 89.3752 48.8494 89.7197 48.9008 90.1426C48.9362 90.4343 49.0341 90.6924 49.1946 90.9171C49.3551 91.1418 49.5717 91.3116 49.8447 91.4264C50.1176 91.5413 50.44 91.5761 50.8118 91.5309L53.7868 91.1697L53.8984 92.0885Z" fill="white"/>
<path d="M53.8437 76.7746C53.7817 77.285 53.6102 77.7229 53.329 78.0883C53.0415 78.4456 52.6725 78.7115 52.2222 78.8862C51.7645 79.06 51.2513 79.1124 50.6826 79.0433C50.1138 78.9743 49.6313 78.8047 49.2349 78.5346C48.8322 78.2563 48.538 77.9062 48.3525 77.4841C48.1597 77.0611 48.0952 76.5871 48.1589 76.0621C48.2227 75.5372 48.3974 75.1033 48.6832 74.7607C48.9617 74.4171 49.3061 74.1704 49.7165 74.0204C50.1268 73.8705 50.5544 73.8225 50.9992 73.8765C51.0794 73.8863 51.1592 73.8997 51.2385 73.9167C51.3187 73.9264 51.4098 73.9375 51.5119 73.9499L51.0006 78.1608C51.4043 78.1876 51.7508 78.1372 52.0401 78.0095C52.3229 77.8737 52.545 77.6898 52.7064 77.4578C52.8686 77.2185 52.967 76.9567 53.0015 76.6723C53.0502 76.2713 53.0044 75.9476 52.8642 75.7012C52.7239 75.4548 52.5114 75.2551 52.2266 75.1021L52.3368 74.1943C52.8249 74.3794 53.22 74.69 53.5222 75.1263C53.8171 75.5616 53.9243 76.1111 53.8437 76.7746ZM48.9766 76.1836C48.9252 76.6065 49.0077 76.9939 49.2239 77.3457C49.4411 77.6902 49.7749 77.9269 50.2254 78.0556L50.6265 74.7525C50.1708 74.7267 49.7973 74.8479 49.5058 75.1158C49.2079 75.3756 49.0315 75.7315 48.9766 76.1836Z" fill="white"/>
<path d="M57.0407 64.2749C56.8662 64.735 56.6034 65.1067 56.2525 65.39C55.9041 65.6664 55.4904 65.8355 55.0113 65.8973C54.5254 65.9566 54.0043 65.8807 53.448 65.6697C52.8917 65.4587 52.4547 65.1713 52.1372 64.8073C51.8127 64.4407 51.613 64.0351 51.5382 63.5903C51.4659 63.1387 51.5145 62.6897 51.6838 62.2433C51.9234 61.6115 52.2728 61.1666 52.732 60.9087C53.1911 60.6507 53.7047 60.5705 54.2726 60.6681L53.9366 61.554C53.6237 61.5297 53.3406 61.603 53.0872 61.774C52.827 61.9424 52.6291 62.2051 52.4937 62.5622C52.3947 62.8232 52.3696 63.0965 52.4184 63.3821C52.4672 63.6677 52.6016 63.9347 52.8216 64.1831C53.0417 64.4315 53.3611 64.6352 53.7801 64.7941C54.199 64.9529 54.5766 65.0137 54.9129 64.9762C55.2423 64.9362 55.52 64.8255 55.7459 64.644C55.9718 64.4626 56.1342 64.2414 56.2332 63.9805C56.3765 63.6027 56.4039 63.2714 56.3156 62.9865C56.2298 62.6948 56.0618 62.4543 55.8115 62.2651L56.1475 61.3791C56.6405 61.7154 56.9687 62.1344 57.1319 62.6362C57.2977 63.1312 57.2673 63.6774 57.0407 64.2749Z" fill="white"/>
<path d="M61.7824 54.6447L55.2539 50.1384L55.7796 49.3767L59.7149 52.093L59.1063 48.9017L59.776 47.9315L60.3967 51.3186L60.4511 51.3562L64.4424 50.7911L63.7915 51.7341L59.9688 52.2683L62.3082 53.8831L61.7824 54.6447Z" fill="white"/>
<path d="M82.2739 36.1077C82.0723 36.2136 81.8641 36.2357 81.6493 36.1742C81.4346 36.1128 81.2743 35.9812 81.1685 35.7796C81.0661 35.5845 81.0506 35.3811 81.122 35.1694C81.1934 34.9577 81.3299 34.799 81.5315 34.6932C81.7331 34.5873 81.9413 34.5652 82.1561 34.6267C82.3708 34.6881 82.5294 34.8164 82.6318 35.0116C82.7376 35.2132 82.7548 35.4198 82.6834 35.6315C82.612 35.8432 82.4755 36.0019 82.2739 36.1077Z" fill="white"/>
<path d="M100.653 46.2316C104.177 42.7716 109.823 42.7716 113.347 46.2316C115.505 48.3503 118.578 49.2525 121.539 48.6369C126.374 47.6315 131.124 50.684 132.218 55.5C132.888 58.4491 134.985 60.8694 137.809 61.9522C142.42 63.7206 144.766 68.8565 143.082 73.4995C142.052 76.3426 142.507 79.5125 144.297 81.9501C147.221 85.9308 146.417 91.5194 142.491 94.5153C140.087 96.3498 138.756 99.2629 138.944 102.281C139.251 107.21 135.554 111.478 130.631 111.875C127.617 112.119 124.923 113.85 123.449 116.491C121.042 120.804 115.625 122.394 111.269 120.067C108.601 118.642 105.399 118.642 102.731 120.067C98.375 122.394 92.9577 120.804 90.551 116.491C89.0774 113.85 86.3832 112.119 83.3689 111.875C78.4461 111.478 74.7487 107.21 75.0558 102.281C75.2438 99.2629 73.9134 96.3498 71.5092 94.5153C67.5828 91.5194 66.7793 85.9308 69.7026 81.9501C71.4926 79.5125 71.9483 76.3426 70.9176 73.4995C69.2342 68.8565 71.5797 63.7206 76.191 61.9522C79.0147 60.8694 81.1119 58.4491 81.7819 55.5C82.876 50.684 87.6258 47.6315 92.4611 48.6369C95.422 49.2525 98.4948 48.3503 100.653 46.2316Z" fill="#FFF6DD"/>
<path d="M96 83L103.325 90L118 76" stroke="#244B61" stroke-width="5" stroke-linecap="round" stroke-linejoin="round"/>
<defs>
<filter id="filter0_d_13_28" x="0" y="0" width="214" height="214" filterUnits="userSpaceOnUse" color-interpolation-filters="sRGB">
<feFlood flood-opacity="0" result="BackgroundImageFix"/>
<feColorMatrix in="SourceAlpha" type="matrix" values="0 0 0 0 0 0 0 0 0 0 0 0 0 0 0 0 0 0 127 0" result="hardAlpha"/>
<feOffset dy="24"/>
<feGaussianBlur stdDeviation="17"/>
<feComposite in2="hardAlpha" operator="out"/>
<feColorMatrix type="matrix" values="0 0 0 0 0.300581 0 0 0 0 0.439096 0 0 0 0 0.5175 0 0 0 0.3 0"/>
<feBlend mode="normal" in2="BackgroundImageFix" result="effect1_dropShadow_13_28"/>
<feBlend mode="normal" in="SourceGraphic" in2="effect1_dropShadow_13_28" result="shape"/>
</filter>
<linearGradient id="paint0_linear_13_28" x1="107" y1="10" x2="107" y2="156" gradientUnits="userSpaceOnUse">
<stop stop-color="#4A87A9"/>
<stop offset="1" stop-color="#000E17"/>
</linearGradient>
</defs>
</svg>
